<?xml version="1.0" encoding="UTF-8" standalone="no"?>
<svg
   xmlns:sketch="http://www.bohemiancoding.com/sketch/ns"
   xmlns:dc="http://purl.org/dc/elements/1.1/"
   xmlns:cc="http://creativecommons.org/ns#"
   xmlns:rdf="http://www.w3.org/1999/02/22-rdf-syntax-ns#"
   xmlns:svg="http://www.w3.org/2000/svg"
   xmlns="http://www.w3.org/2000/svg"
   id="svg50"
   version="1.1"
   viewBox="0 0 24 24"
   height="24px"
   width="24px">
  <metadata
     id="metadata54">
    <rdf:RDF>
      <cc:Work
         rdf:about="">
        <dc:format>image/svg+xml</dc:format>
        <dc:type
           rdf:resource="http://purl.org/dc/dcmitype/StillImage" />
        <dc:title>tb_measure</dc:title>
      </cc:Work>
    </rdf:RDF>
  </metadata>
  <!-- Generator: Sketch 3.3.1 (12002) - http://www.bohemiancoding.com/sketch -->
  <title
     id="title2">tb_measure</title>
  <desc
     id="desc4">Created with Sketch.</desc>
  <defs
     id="defs25">
    <linearGradient
       id="linearGradient-1"
       y2="100%"
       x2="50%"
       y1="0%"
       x1="50%">
      <stop
         id="stop6"
         offset="0%"
         stop-color="#B4B3B3" />
      <stop
         id="stop8"
         offset="44.6490095%"
         stop-color="#9B9999" />
      <stop
         id="stop10"
         offset="100%"
         stop-color="#D0CECE" />
    </linearGradient>
    <linearGradient
       id="linearGradient-2"
       y2="100%"
       x2="50%"
       y1="0%"
       x1="50%">
      <stop
         id="stop13"
         offset="0%"
         stop-color="#E1E1E1" />
      <stop
         id="stop15"
         offset="100%"
         stop-color="#B6B6B6" />
    </linearGradient>
    <linearGradient
       id="linearGradient-3"
       y2="66.0549115%"
       x2="57.0550804%"
       y1="35.6125608%"
       x1="42.7786811%">
      <stop
         id="stop18"
         offset="0%"
         stop-color="#FFF700" />
      <stop
         id="stop20"
         offset="52.6933862%"
         stop-color="#DAD304" />
      <stop
         id="stop22"
         offset="100%"
         stop-color="#FFF700" />
    </linearGradient>
  </defs>
  <g
     sketch:type="MSPage"
     fill-rule="evenodd"
     fill="none"
     stroke-width="1"
     stroke="none"
     id="Page-1">
    <g
       sketch:type="MSArtboardGroup"
       id="tb_measure">
      <g
         transform="translate(5.000000, 3.000000)"
         sketch:type="MSLayerGroup"
         id="Group">
        <path
           sketch:type="MSShapeGroup"
           fill="#7B7B7B"
           stroke-width="0.5"
           stroke="#000000"
           id="Fill-18584"
           d="M1.31908553,14.2831011 L1.39441019,14.3043024 L1.46641882,14.3303675 L1.48635222,14.3392222 L1.53425447,14.3607977 L1.59710988,14.3953433 L1.65420262,14.4336304 L1.6956467,14.4676772 L1.70488686,14.4752848 L1.74847953,14.5196828 L1.78443416,14.5664504 L1.81227883,14.6148393 L1.82078623,14.6367889 L1.83162851,14.6646 L1.84218513,14.7147349 L1.84375,14.7649945 L1.8409556,14.8118868 L1.83799974,14.8616476 L1.82437548,15.0907465 L1.8118814,15.3011384 L1.80062927,15.4904536 L1.79076814,15.6564475 L1.78584999,15.7391326 L1.78240977,15.796875 L0.0610809326,14.1626277 L0.14925562,14.1209734 L0.414603483,14.1626277 L0.801393407,14.2141344 L1.17388469,14.2637705 L1.3124659,14.2823528 L1.31908553,14.2831011 Z M1.58336143,14.6547477 L1.58168479,14.6351676 L1.57672938,14.6155876 L1.56855731,14.596257 L1.55726792,14.5773005 L1.54298543,14.5590923 L1.52588369,14.5416324 L1.50612416,14.5250455 L1.48395524,14.5098304 L1.45958806,14.4958625 L1.43330826,14.4833911 L1.40537666,14.4726658 L1.37611617,14.463437 L1.34580001,14.4563283 L1.31480078,14.4509656 L1.28341655,14.4474736 L1.25198511,14.4461018 L1.22084803,14.4468501 L1.19033813,14.449469 L1.16077584,14.4542082 L1.13248283,14.4606933 L1.10576462,14.4692985 L1.08090438,14.479525 L1.05820142,14.4913728 L1.03787556,14.5048419 L1.02017023,14.5199322 L1.00529035,14.5360203 L0.993389926,14.5532308 L0.984616746,14.5715637 L0.979081347,14.5903954 L0.976845825,14.609726 L0.977946199,14.6294308 L0.982389919,14.6491355 L0.990124823,14.6687156 L1.00107888,14.6879215 L1.01513658,14.7065038 L1.03214393,14.7244626 L1.05192457,14.7411742 L1.07426116,14.7568881 L1.0988966,14.7712302 L1.12556265,14.783951 L1.15396246,14.7950505 L1.18377563,14.804404 L1.2146606,14.8117621 L1.24627957,14.8172495 L1.27826615,14.8206168 L1.31026764,14.8218639 L1.34192511,14.8209909 L1.37287466,14.8181225 L1.40278097,14.8132587 L1.43129629,14.8062747 L1.45811013,14.79742 L1.48293684,14.7866947 L1.50549076,14.7744727 L1.52553594,14.7606295 L1.54286123,14.7454145 L1.55726792,14.7288276 L1.56861941,14.7113676 L1.5768039,14.6931595 L1.58173446,14.674203 L1.58336143,14.6547477 Z" />
        <path
           sketch:type="MSShapeGroup"
           fill="#8E8E8E"
           stroke-width="0.5"
           stroke="#000000"
           id="Fill-18585"
           d="M0.015625,14.109375 L1.8018343,15.7958957 L1.97901354,16.8861326 L1.984375,16.9364877 L1.98290594,16.9792396 L1.97468168,17.0137653 L1.95989059,17.0391921 L1.938834,17.0556447 L1.91192626,17.0625 L1.87965706,17.0598825 L1.84261654,17.0477923 L1.80147018,17.0266033 L1.75693366,16.9968141 L1.70976036,16.9587985 L1.66075388,16.9133044 L0.676867308,15.943097 L0.629947645,15.8939883 L0.582594795,15.8391462 L0.535565893,15.7793184 L0.489630628,15.7155021 L0.445523532,15.648819 L0.403974116,15.5802663 L0.36564283,15.5109658 L0.331153713,15.4421638 L0.301075556,15.3748576 L0.275908094,15.3100441 L0.25607321,15.2490945 L0.241924988,15.1927567 L0.015625,14.109375 M0.533224179,15.168327 L0.495906171,15.1379145 L0.46393832,15.122833 L0.439502879,15.1244533 L0.424205772,15.1424016 L0.419035167,15.1754316 L0.424278598,15.2210503 L0.439530502,15.276391 L0.463739934,15.3374652 L0.495254509,15.4002844 L0.531967313,15.4607354 L0.571447482,15.514705 L0.611062003,15.5585787 L1.52705644,16.4517579 L1.56680908,16.4850371 L1.60167739,16.5029855 L1.62928827,16.5042319 L1.64772064,16.4886517 L1.6556561,16.4572421 L1.65246684,16.4119973 L1.63834122,16.3559088 L1.61419583,16.2930896 L1.58168806,16.2275283 L1.54307803,16.1640859 L1.50105274,16.1071249 L1.45855031,16.060509 L0.533224179,15.168327" />
        <g
           id="g33"
           sketch:type="MSShapeGroup"
           transform="translate(5.078125, 0.703125)">
          <path
             fill="#909090"
             stroke-width="0.5"
             stroke="#000000"
             id="Path-3369"
             d="M2.83488466,11.8473815 L0.826080322,10.3987427 L0.831298828,9.43991089 C0.831298828,9.43991089 0.461151123,8.95056152 0.269256592,8.40948486 C0.0773620605,7.8684082 -0.0625305176,6.82141113 0.0477905273,5.87548828 C0.158111572,4.92956543 0.895019546,3.00430298 1.19645692,2.50968933 C1.4978943,2.01507568 1.67092896,1.77607727 1.92187502,1.61283875 C2.17282107,1.44960022 5.86436464,0.18850708 6.12277223,0.118927002 C6.38117982,0.0493469238 6.46256383,0.0216965368 6.6826172,0.0371246332 C6.90267057,0.0525527295 7.12806703,0.118927 7.12806703,0.118927 L7.3735428,0.204505918 L7.3735428,0.420181272 L7.96623231,0.583534238 L8.20170595,0.497772214 C8.20170595,0.497772214 8.64564513,0.682456928 8.89755249,0.792205811 C9.14945985,0.901954693 9.45829012,1.25095381 9.48303224,1.51068882 C9.50777437,1.77042384 9.4491577,2.1595459 9.44915771,2.43475342 C9.44915773,2.70996094 8.78990678,6.95847539 8.72522737,7.32479091 C8.66054796,7.69110642 8.55555724,7.90942388 8.44830322,8.10314941 C8.34104921,8.29687495 8.26153566,8.46015925 8.00619507,8.65557861 C7.75085448,8.85099797 3.69820406,11.6384811 3.69820406,11.6384811 C3.69820406,11.6384811 3.40930939,11.8402176 3.26168062,11.9073028 C3.11405185,11.974388 2.97480012,11.94944 2.83488466,11.8473815 Z" />
          <path
             fill="url(#linearGradient-1)"
             id="Path-3368"
             d="M6.68371582,2.48812866 L8.84069824,1.78546143 L8.07009888,7.87811279 L4.39782715,10.2888794 L3.37188721,8.38284302 L3.74121094,5.62536621 L5.09124756,3.37188721 L6.68371582,2.48812866 Z" />
          <path
             fill="#909090"
             id="Fill-18809"
             d="M8.80106588,1.41914937 L8.87237841,1.40625 L8.93992584,1.4100071 L9.00096537,1.43054589 L9.05451211,1.4672402 L9.09979307,1.51933861 L9.13613503,1.5860897 L9.16305177,1.66574015 L9.18023161,1.75728807 L9.1875,1.85885492 L9.18484448,1.96906309 L9.17129261,2.09605296 L8.3969283,7.45743001 L8.38054636,7.54484512 L8.35859158,7.62737602 L8.32982969,7.71241164 L8.29478432,7.79832392 L8.25406636,7.88361001 L8.20837398,7.96701756 L8.15845521,8.04704372 L8.10518276,8.12243613 L8.04940439,8.19194242 L7.99209255,8.25418499 L7.93420723,8.30828718 L7.87033763,8.35813133 L3.35199071,11.53125 L3.38391928,10.7412578 L3.82972232,10.0200205 L3.41834129,9.65984011 L3.19541483,9.32808847 L3.03094719,8.90604127 L2.93246858,8.3984575 L2.90625,7.81322707 L2.9568046,7.16237268 L3.08631414,6.46079748 L3.29418019,5.72666078 L3.57672492,4.9806266 L3.92720356,4.24473659 L4.32141723,3.56620491 L4.37632289,3.50008001 L4.46233428,3.40339739 L4.54980433,3.31172423 L4.63845877,3.225311 L4.72799839,3.14453342 L4.81816136,3.06939149 L4.90864848,3.00038615 L4.99916054,2.93739216 L5.08944819,2.88066 L5.17922468,2.83044014 L5.26820327,2.78685781 L5.3596005,2.74828495 L8.80106588,1.41914937 M8.13345842,2.97909593 L8.00846202,2.81879314 L7.8608002,2.69067614 L7.69140801,2.59762538 L7.5016319,2.54164463 L7.29316743,2.5247377 L7.06808414,2.54828217 L6.82882561,2.61327995 L6.57823438,2.71973102 L6.33392663,2.85924455 L6.31941478,2.86751016 L6.05580777,3.05523976 L5.79105377,3.28129175 L5.52893035,3.54291092 L5.27328989,3.83671588 L5.0279349,4.15894954 L4.79654319,4.50472768 L4.58255573,4.8692913 L4.38907686,5.24713 L4.21884937,5.63273336 L4.07412981,6.02009003 L3.95670102,6.40406532 L3.8677723,6.77902357 L3.80807922,7.13995533 L3.77779633,7.48222685 L3.77662441,7.8017053 L3.79057524,7.95211441 L3.8037905,8.09463361 L3.85817253,8.35825657 L3.93827446,8.59006944 L4.04235085,8.78831891 L4.16841944,8.95162738 L4.31434831,9.07949391 L4.47788091,9.1712923 L4.65674819,9.22752352 L4.84860633,9.24843802 L5.0511738,9.23503771 L5.26214419,9.18857495 L5.47933573,9.11005163 L5.70059158,9.00134629 L5.92385465,8.86383655 L6.1471676,8.69965142 L6.36861045,8.51041899 L6.58641288,8.29826826 L6.798817,8.06507779 L7.00418961,7.81310183 L7.20094736,7.54434418 L7.38758173,7.26130956 L7.56264651,6.96600175 L7.7247329,6.66080026 L7.87249446,6.34795934 L8.00467198,6.03023419 L8.12000629,5.70987908 L8.21733792,5.3896492 L8.29554482,5.07204929 L8.35362962,4.75995979 L8.39061988,4.45638637 L8.40569276,4.16408424 L8.39813762,3.88605908 L8.36741838,3.62556704 L8.31313608,3.38548856 L8.23512865,3.16895455 L8.13345842,2.97909593" />
          <path
             fill="#FFF700"
             stroke-width="0.5"
             stroke="#797979"
             id="Fill-19332"
             d="M7.89108075,3.26026004 L7.96688092,3.46039868 L8.02064485,3.68259393 L8.05242238,3.92433934 L8.0625,4.1825019 L8.05133863,4.45432451 L8.01951128,4.73717542 L7.96776536,5.0279216 L7.89694794,5.32418192 L7.8079933,5.62319933 L7.70191043,5.92234205 L7.57979555,6.21922899 L7.44279468,6.51122838 L7.29215352,6.79633508 L7.12911775,7.07204266 L6.95502027,7.33622065 L6.7712687,7.58661326 L6.57930804,7.82121535 L6.38067049,8.03777112 L6.17692561,8.2346514 L5.96971771,8.40960039 L5.76079077,8.56098892 L5.55195102,8.68693715 L5.34507946,8.78594124 L5.14211937,8.85624667 L4.94508876,8.89685088 L4.75605546,8.90625 L4.57716208,8.88344146 L4.41052627,8.8280493 L4.25831554,8.73957224 L4.12262265,8.61788494 L4.00547807,8.46336337 L3.90882506,8.27688479 L3.83445743,8.05982773 L3.81081426,7.94465715 L3.796875,7.79414588 L3.79804595,7.47445041 L3.82830373,7.1319464 L3.88794732,6.77076947 L3.97680231,6.39555652 L4.09413375,6.01132041 L4.23873331,5.62370061 L4.40881968,5.23783532 L4.60213814,4.85973997 L4.81594819,4.49492871 L5.04714805,4.1489157 L5.29229963,3.82646315 L5.54772814,3.53245862 L5.80963423,3.27066174 L6.07416873,3.0444562 L6.33755719,2.85659908 L6.35205701,2.84832785 L6.56790999,2.75621646 L6.79061425,2.6950595 L7.00073706,2.671875 L7.19596142,2.68603634 L7.37431916,2.73616499 L7.53414105,2.82088242 L7.67416894,2.93805814 L7.79335645,3.08531105 L7.89108075,3.26026004" />
        </g>
        <path
           sketch:type="MSShapeGroup"
           fill="#FFF700"
           stroke-width="0.5"
           stroke="#000000"
           id="Path-3373"
           d="M7.4123764,6.15181732 L6.70412445,6.47344208 L5.58757019,5.83449554 L6.13942719,5.51417542 L7.4123764,6.15181732 Z" />
        <path
           sketch:type="MSShapeGroup"
           fill="#FFF700"
           stroke-width="0.5"
           stroke="#000000"
           id="Path-3374"
           d="M7.42045593,6.16815948 C7.42045593,6.16815948 7.05557251,7.11975861 6.98173523,7.52213287 C6.90789795,7.92450714 6.82133484,8.49316406 6.90153503,8.84429169 C6.98173523,9.19541931 7.07527925,9.53162384 7.16518402,9.6882019 C7.2550888,9.84477997 7.421875,10.1503601 7.421875,10.1503601 L7.10002136,10.3345184 C7.10002136,10.3345184 6.94364929,10.0381622 6.83939362,9.86318207 C6.73513794,9.6882019 6.49320984,9.18399811 6.45411682,8.94580078 C6.4150238,8.70760345 6.34489441,8.19264221 6.40742493,7.52213287 C6.46995544,6.85162354 6.7019043,6.48587036 6.7019043,6.48587036 L7.42045593,6.16815948 Z" />
        <path
           sketch:type="MSShapeGroup"
           fill="#FFF700"
           stroke-width="0.5"
           stroke="#000000"
           id="Path-3375"
           d="M5.58363343,5.84614563 L6.70929718,6.47788239 C6.70929718,6.47788239 6.49643707,7.05782318 6.44713593,7.31169891 C6.39783478,7.56557465 6.36066437,8.01333618 6.40390015,8.50666809 C6.44713593,9 6.62522888,9.43915558 6.6947403,9.58575439 C6.76425171,9.73235321 7.06207276,10.299408 7.06207276,10.299408 L6.00782013,9.61303711 C6.00782013,9.61303711 5.69223785,9.30683899 5.58363342,9.08944702 C5.47502899,8.87205505 5.37514496,8.50566101 5.34472656,8.21987915 C5.31430817,7.93409729 5.27175903,7.36603546 5.32824707,6.95631409 C5.38473511,6.54659271 5.58363343,5.84614563 5.58363343,5.84614563 Z" />
        <path
           sketch:type="MSShapeGroup"
           stroke-width="0.5"
           stroke="#000000"
           id="Path-3376"
           d="M5.95341492,10.3193207 L8.1023407,11.6515503" />
        <path
           sketch:type="MSShapeGroup"
           fill="#B6B6B6"
           stroke-width="0.5"
           stroke="#000000"
           id="path39"
           d="M6.55273056,4.85966492 C6.55273056,4.85966492 6.86358643,4.16798401 7,3.86087036 C7.13641357,3.55375671 7.26179504,3.33677673 7.41500854,3.20631409 C7.56822205,3.07585144 7.69868469,2.9672699 7.904953,2.87132263 C8.11122131,2.77537537 12.3896294,1.23358154 12.3896294,1.23358154 L12.2836914,1.02026367 C12.2836914,1.02026367 7.88259125,2.57970428 7.71930695,2.6496048 C7.55602264,2.71950531 7.26106262,2.91730499 7.14286804,3.04579926 C7.02467346,3.17429352 6.82039642,3.49948883 6.73612213,3.68048859 C6.65184784,3.86148834 6.40180588,4.5019455 6.40180588,4.5019455 L6.55273056,4.85966492 Z" />
        <path
           sketch:type="MSShapeGroup"
           fill="#7B7979"
           stroke-width="0.5"
           stroke="#000000"
           id="path41"
           d="M7.31109619,5.29433441 L6.55770874,4.900177 C6.55770874,4.900177 6.83605194,4.18299866 7,3.83207703 C7.16394806,3.4811554 7.17550659,3.41267395 7.50564575,3.12254333 C7.83578491,2.83241272 8.42250061,2.6627655 8.70777893,2.56109619 C8.99305725,2.45942688 12.3790321,1.22575378 12.3790321,1.22575378 L13.0049438,1.47990417 L9.4216156,2.86500549 C9.4216156,2.86500549 8.48937988,3.20768738 8.24836731,3.39051819 C8.00735474,3.573349 7.83294678,3.89016724 7.71356201,4.12637329 C7.59417725,4.36257935 7.31109619,5.29433441 7.31109619,5.29433441 Z" />
        <path
           sketch:type="MSShapeGroup"
           stroke-width="0.5"
           stroke="url(#linearGradient-2)"
           id="path43"
           d="M14.2258911,1.78303528 C14.2258911,1.78303528 10.9238673,2.91373721 10.204895,3.2911377 C9.48592278,3.66853818 9.17002869,4.00282288 8.8591156,4.44369507 C8.54820251,4.88456726 8.26004031,5.63868713 8.06288149,6.1834259 C7.86572268,6.72816467 7.7265625,7.65637207 7.7265625,8.20797729 C7.7265625,8.75958252 7.77014164,9.50724792 8.06288149,10.0263062 C8.35562134,10.5453644 8.65065002,10.799469 8.65065002,10.799469 L8.29624939,11.3979034 L8.24795532,12.4888458" />
        <path
           sketch:type="MSShapeGroup"
           stroke-width="0.5"
           stroke="#000000"
           id="Path-3369-Copy"
           d="M7.91300966,12.5505065 L5.90420532,11.1018677 L5.90942383,10.1430359 C5.90942383,10.1430359 5.53927612,9.65368652 5.34738159,9.11260986 C5.15548706,8.5715332 5.01559448,7.52453613 5.12591553,6.57861328 C5.23623657,5.63269043 5.97314455,3.70742798 6.27458192,3.21281433 C6.5760193,2.71820068 6.74905396,2.47920227 7.00000002,2.31596375 C7.25094607,2.15272522 10.9424896,0.89163208 11.2008972,0.822052002 C11.4593048,0.752471924 11.5406888,0.724821537 11.7607422,0.740249633 C11.9807956,0.75567773 12.206192,0.822052 12.206192,0.822052 L12.4516678,0.907630918 L12.4516678,1.12330627 L13.0443573,1.28665924 L13.2798309,1.20089721 C13.2798309,1.20089721 13.7237701,1.38558193 13.9756775,1.49533081 C14.2275849,1.60507969 14.5364151,1.95407881 14.5611572,2.21381382 C14.5858994,2.47354884 14.5272827,2.8626709 14.5272827,3.13787842 C14.5272827,3.41308594 13.8680318,7.66160039 13.8033524,8.02791591 C13.738673,8.39423142 13.6336822,8.61254888 13.5264282,8.80627441 C13.4191742,8.99999995 13.3396607,9.16328425 13.0843201,9.35870361 C12.8289795,9.55412297 8.77632906,12.3416061 8.77632906,12.3416061 C8.77632906,12.3416061 8.48743439,12.5433426 8.33980562,12.6104278 C8.19217685,12.677513 8.05292512,12.652565 7.91300966,12.5505065 Z" />
        <path
           sketch:type="MSShapeGroup"
           fill="url(#linearGradient-3)"
           stroke-width="0.5"
           stroke="#000000"
           id="Path-3367"
           d="M2.03639984,15.7087097 L7.95313263,11.7325745 C7.95313263,11.7325745 7.54174042,11.6109238 7.31002045,11.5240631 C7.07830048,11.4372025 6.66088867,11.2307968 6.52754211,11.0881577 C6.39419556,10.9455185 6.04364014,10.4531479 6.04364014,10.4531479 L0.275749207,14.0048904 C0.275749207,14.0048904 1.04914093,14.1087341 1.30189514,14.1365204 C1.55464935,14.1643066 1.80660248,14.2687912 1.90802002,14.3397903 C2.00943756,14.4107895 2.07631683,14.5511169 2.07631683,14.6079941 C2.07631683,14.6648712 2.03639984,15.7087097 2.03639984,15.7087097 Z" />
      </g>
    </g>
  </g>
  <g
     id="text835"
     style="font-style:normal;font-variant:normal;font-weight:normal;font-stretch:normal;font-size:40px;line-height:5.00000007%;font-family:Arial;-inkscape-font-specification:Arial;letter-spacing:0px;word-spacing:0px;fill:#000000;fill-opacity:1;stroke:none;stroke-width:1px;stroke-linecap:butt;stroke-linejoin:miter;stroke-opacity:1"
     aria-label="1:100">
    <path
       id="path897"
       style="font-style:normal;font-variant:normal;font-weight:bold;font-stretch:normal;font-size:4.66666651px;line-height:4.50400002%;font-family:Arial;-inkscape-font-specification:'Arial Bold';text-align:center;text-anchor:middle"
       d="M 12.422103,20.50688 H 11.781803 V 18.093794 Q 11.430892,18.421919 10.954655,18.579145 V 17.998091 Q 11.205306,17.91606 11.499251,17.688195 11.793197,17.458052 11.902572,17.152713 H 12.422103 Z" />
    <path
       id="path899"
       style="font-style:normal;font-variant:normal;font-weight:bold;font-stretch:normal;font-size:4.66666651px;line-height:4.50400002%;font-family:Arial;-inkscape-font-specification:'Arial Bold';text-align:center;text-anchor:middle"
       d="M 13.641178,18.727257 V 18.086958 H 14.281478 V 18.727257 Z M 13.641178,20.50688 V 19.86658 H 14.281478 V 20.50688 Z" />
    <path
       id="path901"
       style="font-style:normal;font-variant:normal;font-weight:bold;font-stretch:normal;font-size:4.66666651px;line-height:4.50400002%;font-family:Arial;-inkscape-font-specification:'Arial Bold';text-align:center;text-anchor:middle"
       d="M 16.578353,20.50688 H 15.938053 V 18.093794 Q 15.587142,18.421919 15.110905,18.579145 V 17.998091 Q 15.361556,17.91606 15.655501,17.688195 15.949447,17.458052 16.058822,17.152713 H 16.578353 Z" />
    <path
       id="path903"
       d="M 18.619141,17.152344 C 18.295573,17.152344 18.044054,17.266276 17.863281,17.494141 17.644531,17.770617 17.535156,18.22461 17.535156,18.853516 17.535156,18.905008 17.545591,18.935401 17.546875,18.984375 H 18.214844 C 18.213899,18.929612 18.205078,18.919988 18.205078,18.859375 18.205078,18.467448 18.22743,18.189019 18.271484,18.023438 18.304904,17.895834 18.351345,17.808377 18.412109,17.759766 18.472873,17.709636 18.541667,17.683594 18.619141,17.683594 18.696615,17.683594 18.764973,17.709636 18.824219,17.759766 18.884982,17.808377 18.935113,17.905382 18.974609,18.052734 19.014106,18.198568 19.035156,18.467448 19.035156,18.859375 19.035156,18.918111 19.02638,18.930757 19.025391,18.984375 H 19.693359 C 19.694646,18.938005 19.705078,18.907836 19.705078,18.859375 19.705078,18.225912 19.596138,17.773438 19.378906,17.5 19.196615,17.269097 18.942709,17.152344 18.619141,17.152344 Z"
       style="font-style:normal;font-variant:normal;font-weight:bold;font-stretch:normal;font-size:4.66666651px;line-height:4.50400002%;font-family:Arial;-inkscape-font-specification:'Arial Bold';text-align:center;letter-spacing:0px;word-spacing:0px;text-anchor:middle;fill:#000000;fill-opacity:1;stroke:none;stroke-width:1px;stroke-linecap:butt;stroke-linejoin:miter;stroke-opacity:1" />
    <path
       id="path905"
       d="M 21.216797,17.152344 C 20.893229,17.152344 20.64171,17.266276 20.460938,17.494141 20.242188,17.770617 20.132812,18.22461 20.132812,18.853516 20.132812,18.905008 20.143247,18.935401 20.144531,18.984375 H 20.8125 C 20.811555,18.929612 20.802734,18.919988 20.802734,18.859375 20.802734,18.467448 20.825087,18.189019 20.869141,18.023438 20.902561,17.895834 20.949002,17.808377 21.009766,17.759766 21.07053,17.709636 21.139323,17.683594 21.216797,17.683594 21.294271,17.683594 21.36263,17.709636 21.421875,17.759766 21.482639,17.808377 21.53277,17.905382 21.572266,18.052734 21.611762,18.198568 21.632812,18.467448 21.632812,18.859375 21.632812,18.918111 21.624036,18.930757 21.623047,18.984375 H 22.291016 C 22.292302,18.938005 22.302734,18.907836 22.302734,18.859375 22.302734,18.225912 22.193793,17.773438 21.976562,17.5 21.79427,17.269097 21.540364,17.152344 21.216797,17.152344 Z"
       style="font-style:normal;font-variant:normal;font-weight:bold;font-stretch:normal;font-size:4.66666651px;line-height:4.50400002%;font-family:Arial;-inkscape-font-specification:'Arial Bold';text-align:center;letter-spacing:0px;word-spacing:0px;text-anchor:middle;fill:#000000;fill-opacity:1;stroke:none;stroke-width:1px;stroke-linecap:butt;stroke-linejoin:miter;stroke-opacity:1" />
    <path
       id="path903-1"
       d="M 17.546875,18.984375 C 17.561576,19.545101 17.650967,19.958935 17.833984,20.189453 18.032986,20.438585 18.294054,20.564453 18.619141,20.564453 18.942709,20.564453 19.19618,20.450521 19.376953,20.222656 19.578928,19.967383 19.677871,19.54269 19.693359,18.984375 H 19.025391 C 19.019778,19.288535 19.006202,19.553885 18.96875,19.693359 18.93533,19.820964 18.888889,19.910808 18.828125,19.960938 18.767361,20.009548 18.696615,20.033203 18.619141,20.033203 18.541667,20.033203 18.472873,20.009548 18.412109,19.960938 18.352864,19.912326 18.303168,19.813802 18.263672,19.667969 18.230283,19.543405 18.220007,19.283715 18.214844,18.984375 Z"
       style="font-style:normal;font-variant:normal;font-weight:bold;font-stretch:normal;font-size:4.66666651px;line-height:4.50400002%;font-family:Arial;-inkscape-font-specification:'Arial Bold';text-align:center;letter-spacing:0px;word-spacing:0px;text-anchor:middle;fill:#000000;fill-opacity:1;stroke:none;stroke-width:1px;stroke-linecap:butt;stroke-linejoin:miter;stroke-opacity:1" />
    <path
       id="path905-4"
       d="M 20.144531,18.984375 C 20.159232,19.545101 20.248623,19.958935 20.431641,20.189453 20.630642,20.438585 20.89171,20.564453 21.216797,20.564453 21.540364,20.564453 21.793837,20.450521 21.974609,20.222656 22.176584,19.967383 22.275527,19.54269 22.291016,18.984375 H 21.623047 C 21.617434,19.288535 21.603858,19.553885 21.566406,19.693359 21.532986,19.820964 21.486545,19.910808 21.425781,19.960938 21.365018,20.009548 21.294271,20.033203 21.216797,20.033203 21.139323,20.033203 21.07053,20.009548 21.009766,19.960938 20.950521,19.912326 20.900825,19.813802 20.861328,19.667969 20.82794,19.543405 20.817664,19.283715 20.8125,18.984375 Z"
       style="font-style:normal;font-variant:normal;font-weight:bold;font-stretch:normal;font-size:4.66666651px;line-height:4.50400002%;font-family:Arial;-inkscape-font-specification:'Arial Bold';text-align:center;letter-spacing:0px;word-spacing:0px;text-anchor:middle;fill:#000000;fill-opacity:1;stroke:none;stroke-width:1px;stroke-linecap:butt;stroke-linejoin:miter;stroke-opacity:1" />
  </g>
</svg>
